<svg width="15" height="15" viewBox="0 0 15 15" fill="none" xmlns="http://www.w3.org/2000/svg">
<path d="M7.5 15C11.6421 15 15 11.6421 15 7.5C15 3.35786 11.6421 0 7.5 0C3.35786 0 0 3.35786 0 7.5C0 11.6421 3.35786 15 7.5 15ZM4.28571 8.57143C4.00155 8.57143 3.72903 8.45855 3.5281 8.25761C3.32717 8.05668 3.21429 7.78416 3.21429 7.5C3.21429 7.21584 3.32717 6.94332 3.5281 6.74239C3.72903 6.54145 4.00155 6.42857 4.28571 6.42857C4.56988 6.42857 4.8424 6.54145 5.04333 6.74239C5.24426 6.94332 5.35714 7.21584 5.35714 7.5C5.35714 7.78416 5.24426 8.05668 5.04333 8.25761C4.8424 8.45855 4.56988 8.57143 4.28571 8.57143ZM8.57143 7.5C8.57143 7.78416 8.45855 8.05668 8.25761 8.25761C8.05668 8.45855 7.78416 8.57143 7.5 8.57143C7.21584 8.57143 6.94332 8.45855 6.74239 8.25761C6.54145 8.05668 6.42857 7.78416 6.42857 7.5C6.42857 7.21584 6.54145 6.94332 6.74239 6.74239C6.94332 6.54145 7.21584 6.42857 7.5 6.42857C7.78416 6.42857 8.05668 6.54145 8.25761 6.74239C8.45855 6.94332 8.57143 7.21584 8.57143 7.5ZM10.7143 8.57143C10.4301 8.57143 10.1576 8.45855 9.95667 8.25761C9.75574 8.05668 9.64286 7.78416 9.64286 7.5C9.64286 7.21584 9.75574 6.94332 9.95667 6.74239C10.1576 6.54145 10.4301 6.42857 10.7143 6.42857C10.9984 6.42857 11.271 6.54145 11.4719 6.74239C11.6728 6.94332 11.7857 7.21584 11.7857 7.5C11.7857 7.78416 11.6728 8.05668 11.4719 8.25761C11.271 8.45855 10.9984 8.57143 10.7143 8.57143Z" fill="#54C3E7"/>
</svg>
