<svg width="15" height="15" viewBox="0 0 15 15" fill="none" xmlns="http://www.w3.org/2000/svg">
<path fill-rule="evenodd" clip-rule="evenodd" d="M7.5 15C11.6421 15 15 11.6421 15 7.5C15 3.35786 11.6421 0 7.5 0C3.35786 0 0 3.35786 0 7.5C0 11.6421 3.35786 15 7.5 15ZM9.75 3.81H11.64C11.8391 3.81 12 3.97088 12 4.17V11.64C12 11.8391 11.8391 12 11.64 12H3.36C3.16088 12 3 11.8391 3 11.64V4.17C3 3.97088 3.16088 3.81 3.36 3.81H5.25V3.09C5.25 3.0405 5.2905 3 5.34 3H5.97C6.0195 3 6.06 3.0405 6.06 3.09V3.81H8.94V3.09C8.94 3.0405 8.9805 3 9.03 3H9.66C9.7095 3 9.75 3.0405 9.75 3.09V3.81ZM3.81 6.915V11.19H11.19V6.915H3.81ZM3.81 4.62V6.15H11.19V4.62H9.75V5.16C9.75 5.2095 9.7095 5.25 9.66 5.25H9.03C8.9805 5.25 8.94 5.2095 8.94 5.16V4.62H6.06V5.16C6.06 5.2095 6.0195 5.25 5.97 5.25H5.34C5.2905 5.25 5.25 5.2095 5.25 5.16V4.62H3.81Z" fill="#B8AF9A"/>
</svg>
